<mxfile host="65bd71144e">
    <diagram id="mxcNyrVDuR4thCOx797Z" name="Page-1">
        <mxGraphModel dx="1095" dy="680" grid="1" gridSize="10" guides="1" tooltips="1" connect="1" arrows="1" fold="1" page="1" pageScale="1" pageWidth="850" pageHeight="1100" math="0" shadow="0">
            <root>
                <mxCell id="0"/>
                <mxCell id="1" parent="0"/>
                <mxCell id="2" value="" style="whiteSpace=wrap;html=1;" vertex="1" parent="1">
                    <mxGeometry x="60" y="80" width="480" height="610" as="geometry"/>
                </mxCell>
                <mxCell id="8" value="Icon" style="whiteSpace=wrap;html=1;fontSize=16;" vertex="1" parent="1">
                    <mxGeometry x="252.5" y="150" width="95" height="80" as="geometry"/>
                </mxCell>
                <mxCell id="10" value="Edit Item" style="whiteSpace=wrap;html=1;fontSize=16;" vertex="1" parent="1">
                    <mxGeometry x="240" y="90" width="120" height="50" as="geometry"/>
                </mxCell>
                <mxCell id="11" value="Dropdowns" style="whiteSpace=wrap;html=1;fontSize=16;" vertex="1" parent="1">
                    <mxGeometry x="100" y="250" width="180" height="110" as="geometry"/>
                </mxCell>
                <mxCell id="13" value="Swing types + top/bot damage" style="whiteSpace=wrap;html=1;fontSize=16;" vertex="1" parent="1">
                    <mxGeometry x="320" y="250" width="180" height="110" as="geometry"/>
                </mxCell>
                <mxCell id="14" value="Mods:&lt;br&gt;Str, Dex, Agi, Int, Wis, Mys, Con" style="whiteSpace=wrap;html=1;" vertex="1" parent="1">
                    <mxGeometry x="163.75" y="380" width="272.5" height="150" as="geometry"/>
                </mxCell>
                <mxCell id="15" value="Description" style="whiteSpace=wrap;html=1;fontSize=16;" vertex="1" parent="1">
                    <mxGeometry x="215" y="560" width="170" height="100" as="geometry"/>
                </mxCell>
            </root>
        </mxGraphModel>
    </diagram>
</mxfile>